/* XPM */
static char *_d45d2b045874222a37beed5932dbf2b8dY3ngcYU67mlUYL[] = {
/* columns rows colors chars-per-pixel */
"64 64 236 2 ",
"   c None",
".  c black",
"X  c #010100",
"o  c #020200",
"O  c #030300",
"+  c #040400",
"@  c #050500",
"#  c #060600",
"$  c #070700",
"%  c #080800",
"&  c #090900",
"*  c #0A0A00",
"=  c #0B0B00",
"-  c #0C0C00",
";  c #0D0D00",
":  c #0E0E00",
">  c #0F0F00",
",  c #101000",
"<  c #111100",
"1  c #121200",
"2  c #131300",
"3  c #141400",
"4  c #151500",
"5  c #161600",
"6  c #181800",
"7  c #191900",
"8  c #1A1A00",
"9  c #1B1B00",
"0  c #1C1C00",
"q  c #1D1D00",
"w  c #1E1E00",
"e  c #1F1F00",
"r  c #202000",
"t  c #222200",
"y  c #232300",
"u  c #242400",
"i  c #252500",
"p  c #262600",
"a  c #272700",
"s  c #282800",
"d  c #292900",
"f  c #2A2A00",
"g  c #2B2B00",
"h  c #2C2C00",
"j  c #2D2D00",
"k  c #2E2E00",
"l  c #2F2F00",
"z  c #303000",
"x  c #313100",
"c  c #323200",
"v  c #333300",
"b  c #343400",
"n  c #353500",
"m  c #363600",
"M  c #373700",
"N  c #383800",
"B  c #393900",
"V  c #3A3A00",
"C  c #3B3B00",
"Z  c #3C3C00",
"A  c #3D3D00",
"S  c #3E3E00",
"D  c #3F3F00",
"F  c #414100",
"G  c #434300",
"H  c #444400",
"J  c #454500",
"K  c #464600",
"L  c #474700",
"P  c #484800",
"I  c #494900",
"U  c #4A4A00",
"Y  c #4C4C00",
"T  c #4D4D00",
"R  c #4E4E00",
"E  c #4F4F00",
"W  c #505000",
"Q  c #515100",
"!  c #525200",
"~  c #535300",
"^  c #545400",
"/  c #555500",
"(  c #565600",
")  c #575700",
"_  c #585800",
"`  c #595900",
"'  c #5A5A00",
"]  c #5B5B00",
"[  c #5C5C00",
"{  c #5D5D00",
"}  c #5E5E00",
"|  c #5F5F00",
" . c #606000",
".. c #616100",
"X. c #626200",
"o. c #636300",
"O. c #646400",
"+. c #656500",
"@. c #666600",
"#. c #676700",
"$. c #686800",
"%. c #696900",
"&. c #6A6A00",
"*. c #6B6B00",
"=. c #6C6C00",
"-. c #6D6D00",
";. c #6E6E00",
":. c #6F6F00",
">. c #707000",
",. c #727200",
"<. c #737300",
"1. c #747400",
"2. c #757500",
"3. c #767600",
"4. c #777700",
"5. c #787800",
"6. c #797900",
"7. c #7A7A00",
"8. c #7B7B00",
"9. c #7C7C00",
"0. c #7D7D00",
"q. c #7E7E00",
"w. c #7F7F00",
"e. c #808000",
"r. c #818100",
"t. c #828200",
"y. c #838300",
"u. c #848400",
"i. c #858500",
"p. c #868600",
"a. c #898900",
"s. c #8A8A00",
"d. c #8B8B00",
"f. c #8C8C00",
"g. c #8D8D00",
"h. c #8E8E00",
"j. c #909000",
"k. c #919100",
"l. c #929200",
"z. c #949400",
"x. c #959500",
"c. c #969600",
"v. c #999900",
"b. c #9A9A00",
"n. c #9B9B00",
"m. c #9C9C00",
"M. c #9D9D00",
"N. c #9E9E00",
"B. c #9F9F00",
"V. c #A0A000",
"C. c #A1A100",
"Z. c #A2A200",
"A. c #A3A300",
"S. c #A4A400",
"D. c #A5A500",
"F. c #A6A600",
"G. c #A7A700",
"H. c #A9A900",
"J. c #ABAB00",
"K. c #ACAC00",
"L. c #ADAD00",
"P. c #AEAE00",
"I. c #AFAF00",
"U. c #B0B000",
"Y. c #B1B100",
"T. c #B2B200",
"R. c #B3B300",
"E. c #B4B400",
"W. c #B5B500",
"Q. c #B6B600",
"!. c #B7B700",
"~. c #B9B900",
"^. c #BABA00",
"/. c #BBBB00",
"(. c #BDBD00",
"). c #BEBE00",
"_. c #C0C000",
"`. c #C2C200",
"'. c #C3C300",
"]. c #C5C500",
"[. c #C6C600",
"{. c #C7C700",
"}. c #C8C800",
"|. c #C9C900",
" X c #CACA00",
".X c #CBCB00",
"XX c #CCCC00",
"oX c #CDCD00",
"OX c #CECE00",
"+X c #CFCF00",
"@X c #D1D100",
"#X c #D2D200",
"$X c #D3D300",
"%X c #D4D400",
"&X c #D5D500",
"*X c #D6D600",
"=X c #D7D700",
"-X c #D8D800",
";X c #D9D900",
":X c #DADA00",
">X c #DBDB00",
",X c #DCDC00",
"<X c #DDDD00",
"1X c #DFDF00",
"2X c #E0E000",
"3X c #E1E100",
"4X c #E2E200",
"5X c #E3E300",
"6X c #E4E400",
"7X c #E5E500",
"8X c #E6E600",
"9X c #E7E700",
"0X c #E8E800",
"qX c #E9E900",
"wX c #EAEA00",
"eX c #EBEB00",
"rX c #ECEC00",
"tX c #EDED00",
"yX c #EEEE00",
"uX c #EFEF00",
"iX c #F0F000",
"pX c #F1F100",
"aX c #F2F200",
"sX c #F3F300",
"dX c #F4F400",
"fX c #F5F500",
"gX c #F6F600",
"hX c #F7F700",
"jX c #F8F800",
"kX c #F9F900",
"lX c #FAFA00",
"zX c #FBFB00",
"xX c #FCFC00",
"cX c #FDFD00",
"vX c #FEFE00",
"bX c yellow",
/* pixels */
"                                        . . . . . . . . . . . . . . . . . . . . . . .                                           ",
"                                        . . . . . . . . . . . . . . . . . . . . . . .                                           ",
"                                        . . . . . . . . . . . . . . . . . . . . . . .                                           ",
"                                      . . . . . . . . . . . . . . . . . . . . . . . . . .                                       ",
"                                . . . . . . . . . . . . . . . . . . . . . . . . . . . . . . .                                   ",
"                            . . . . . . . . . . . . . . . . . . . . . . . . . . . . . . . . . . .                               ",
"                        . . . . . . . . . . . . . . . . . . . . . . . . . . . . . . . . . . . . . . .                           ",
"                      . . . . . . . . . . . . . . . . . . . . . . . . . . . . . . . . . . . . . . . . .                         ",
"                      . . . . . . . . . . . . . . . . . . . . . . . . . . . . . . . . . . . . . . . . . .                       ",
"                    . . . . . . . . . . . . . . . . . . . . . . . . . . . . . . . . . . . . . . . . . . . .                     ",
"                . . . . . . . . . . . . . . . . . . . . . . . . . . . . . . . . . . . . . . . . . . . . . . .                   ",
"              . . . . . . . . . . . . . . . . . . . . . . . . . . . . . . . . . . . . . . . . . . . . . . . . .                 ",
"            . . . . . . . . . . . . . . . . . . $ $ $ $ $ $ $ % $ $ $ $ $ $ $ . . . . . . . . . . . . . . . . . .               ",
"            . . . . . . . . . . . . . $ $ $ % , 6 e i g g j j z z j j g g t e 4 : $ $ . . . . . . . . . . . . . . .             ",
"          . . . . . . . . . . . . . $ $ % : 4 t j C L E ! ) ) ' ' ) ! ! E F n g e : % $ $ . . . . . . . . . . . . .             ",
"          . . . . . . . . . . . . . $ % , 4 t z L ' *.4.8.w.y.p.p.y.w.8.<.O.! A g 4 : % $ . . . . . . . . . . . . . .           ",
"        . . . . . . . . . . . . . . % : 4 e j L o.8.j.V.D.I.Y.Q.Q.I.J.V.B.s.<.) C e , : % $ . . . . . . . . . . . . .           ",
"        . . . . . . . . . . . . . $ : 6 i z L o.w.n.Q.{.+X@X%X-X-X%X+X X'.I.j.<.! n t 6 , % . . . . . . . . . . . . . .         ",
"      . . . . . . . . . . . $ $ % : t n I } 4.s.B.Q. X%X-X,X3X3X3X,X-X%X@X'.I.c.w.O.! A j 6 % $ . . . . . . . . . . . .         ",
"    . . . . . . . . . . . $ % : , 6 n ! ;.s.V.I.(. X-X3X8X8XeXeXeXeX8X3X,X%X{.Q.D.c.w.o.L j , % $ $ . . . . . . . . . . .       ",
". . . . . . . . . . . . . $ : , 6 g E ;.j.I.{.+X%X3XeXuXuXiXiXiXiXiXuXuXuX8X,X@X X'.D.p.o.A 6 : % $ . . . . . . . . . . .       ",
". . . . . . . . . . . . . % , 6 t n o.f.Y.%XeXuXiXiXgXkXkXkXkXkXkXkXkXkXkXgXiXuXeX8X+XD.w.! t , : % $ . . . . . . . . . . . . . ",
". . . . . . . . . . . . . : 6 i n E w.D. XeXbXbXbXbXbXbXbXbXbXbXbXbXbXbXbXbXbXbXbXbX8X'.c.O.n e 4 : $ . . . . . . . . . . . . . ",
". . . . . . . . . . . . . 4 g A ) <.c.Q.%XuXbXbXbXbXbXbXbXbXbXbXbXbXbXbXbXbXbXbXbXbXeX XD.w.! C g e : . . . . . . . . . . . . . ",
". . . . . . . . . . . . $ e C ) 4.c.I.{.,XiXbXbXbXbXbXbXbXbXbXbXbXbXbXbXbXbXbXbXbXbXuX@XQ.c.<.) A g 4 . . . . . . . . . . . . . ",
". . . . . . . . . . . . $ i L *.j.Q.{.%X8XgXbXbXbXbXbXbXbXbXbXbXbXbXbXbXbXbXbXbXbXbXiX-X{.I.j.<.! n e $ . . . . . . . . . . . . ",
". . . . . . . . . . . . $ j ) y.I.@X,X8XiXkXbXbXbXbXbXbXbXbXbXbXbXbXbXbXbXbXbXbXbXbXgX8X%X'.I.s.O.F t $ . . . . . . . . . . . . ",
". . . . . . . . . . . . % z o.f.(.8XeXiXgXbXbXbXbXbXbXbXbXbXbXbXbXbXbXbXbXbXbXbXbXbXkXuX,X@X'.B.<.E g $ . . . . . . . . . . . . ",
". . . . . . . . . . . . % n O.c.{.eXuXgXkXbXbXbXbXbXbXbXbXbXbXbXbXbXbXbXbXbXbXbXbXbXkXuX3X%X XD.8.! g $ . . . . . . . . . . . . ",
". . . . . . . . . . . . % C *.n. XiXgXgXkXbXbXbXbXbXbXbXbXbXbXbXbXbXbXbXbXbXbXbXbXbXkXiX8X-X@XJ.w.) j $ . . . . . . . . . . . . ",
". . . . . . . . . . . . % C ;.B.@XgXkXkXbXbXbXbXbXbXbXbXbXbXbXbXbXbXbXbXbXbXbXbXbXbXkXiXeX3X-XY.p.' j $ . . . . . . . . . . . . ",
". . . . . . . . . . . . % A <.V.%XbXbXbXbXbXbXbXbXbXbXbXbXbXbXbXbXbXbXbXbXbXbXbXbXbXkXgXuX8X,X/.s.} z % . . . . . . . . . . . . ",
". . . . . . . . . . . . % A <.D.%XbXbXbXbXbXbXbXbXbXbXbXbXbXbXbXbXbXbXbXbXbXbXbXbXbXkXgXuX8X3X/.s.} z % . . . . . . . . . . . . ",
". . . . . . . . . . . . % C ;.V.@XkXkXbXbXbXbXbXbXbXbXbXbXbXbXbXbXbXbXbXbXbXbXbXbXbXkXiXeX3X-XQ.p.' z % . . . . . . . . . . . . ",
". . . . . . . . . . . . % C *.B.+XgXgXkXkXbXbXbXbXbXbXbXbXbXbXbXbXbXbXbXbXbXbXbXbXbXkXiXeX3X%XY.y.) j $ . . . . . . . . . . . . ",
". . . . . . . . . . . . % C *.n. XiXgXgXkXbXbXbXbXbXbXbXbXbXbXbXbXbXbXbXbXbXbXbXbXbXkXiX8X,X@XJ.w.) j $ . . . . . . . . . . . . ",
". . . . . . . . . . . . % n O.c.{.uXiXgXkXbXbXbXbXbXbXbXbXbXbXbXbXbXbXbXbXbXbXbXbXbXkXuX8X-X+XD.8.! g $ . . . . . . . . . . . . ",
". . . . . . . . . . . . % z } s.Q.,X8XuXiXkXbXbXbXbXbXbXbXbXbXbXbXbXbXbXbXbXbXbXbXbXgXeX-X X/.c.;.I i $ . . . . . . . . . . . . ",
". . . . . . . . . . . . $ g E 4.B.'.@X,XeXgXbXbXbXbXbXbXbXbXbXbXbXbXbXbXbXbXbXbXbXbXiX3X+XQ.B.w.' A t $ . . . . . . . . . . . . ",
". . . . . . . . . . . . $ t F o.p.D.(.@X3XgXbXbXbXbXbXbXbXbXbXbXbXbXbXbXbXbXbXbXbXbXiX-X(.V.y.o.I j 6 $ . . . . . . . . . . . . ",
". . . . . . . . . . . . $ 6 z E *.s.D.'.-XiXbXbXbXbXbXbXbXbXbXbXbXbXbXbXbXbXbXbXbXbXuX+XI.s.O.I n t , . . . . . . . . . . . . . ",
". . . . . . . . . . . . . , t n E *.j.Y.@XuXbXbXbXbXbXbXbXbXbXbXbXbXbXbXbXbXbXbXbXbXeX{.V.4.L j t 4 % . . . . . . . . . . . . . ",
". . . . . . . . . . . . . : 6 i n E 4.n./.-XuXiXgXgXkXbXbXbXbXbXbXbXbXbXbXkXgXiXuXeX%XY.s.} z e 4 : $ . . . . . . . . . . . . . ",
". . . . . . . . . . . . . % , e i C } w.B./.@X-X3XeXiXkXkXkXbXbXbXbXkXkXkXiXeX,X%X XY.j.;.I i 4 , % $ . . . . . . . . . . . . . ",
". . . . . . . . . . . . . $ : , 6 i F o.w.n.Y.'.@X,XuXgXgXkXbXbXbXkXkXgXiXeX-X X/.D.f.<.! n 6 : % $ $ . . . . . . . . . .       ",
"      . . . . . . . . . . $ $ % : 4 j F } 4.j.D.(.@X8XiXgXgXkXbXbXkXgXiXuX3X XY.n.w.O.E C t : % $ $ . . . . . . . . . .         ",
"      . . . . . . . . . . . . . . $ 4 i C E *.s.D.'.,XuXiXgXkXbXbXkXiXuXeX%X/.n.4.! C g e , $ . . . . . . . . . . . . .         ",
"        . . . . . . . . . . . . . . : 6 i n E *.p.B.Q.{. X+X@X%X%X@X+X X'.Y.c.8.' C i 6 , % . . . . . . . . . . . . . .         ",
"        . . . . . . . . . . . . . . % , e i n E o.4.s.c.n.B.V.D.V.B.n.c.j.p.;.' F g 6 4 : $ . . . . . . . . . . . . .           ",
"          . . . . . . . . . . . . . $ : , 6 t z F E } O.*.*.;.<.<.;.*.O.o.' I C g 6 , : % $ . . . . . . . . . . . . .           ",
"          . . . . . . . . . . . . . $ $ % : , 6 t g z n C C C A A C C n n j i e 4 : % $ $ . . . . . . . . . . . . .             ",
"            . . . . . . . . . . . . . . . . . $ $ $ % % % % % % % % % % % $ $ $ . . . . . . . . . . . . . . . . . .             ",
"            . . . . . . . . . . . . . . . . . . . . . . . . . . . . . . . . . . . . . . . . . . . . . . . . . . .               ",
"                . . . . . . . . . . . . . . . . . . . . . . . . . . . . . . . . . . . . . . . . . . . . . . .                   ",
"                  . . . . . . . . . . . . . . . . . . . . . . . . . . . . . . . . . . . . . . . . . . . . .                     ",
"                    . . . . . . . . . . . . . . . . . . . . . . . . . . . . . . . . . . . . . . . . . . . .                     ",
"                      . . . . . . . . . . . . . . . . . . . . . . . . . . . . . . . . . . . . . . . . . .                       ",
"                      . . . . . . . . . . . . . . . . . . . . . . . . . . . . . . . . . . . . . . . . .                         ",
"                          . . . . . . . . . . . . . . . . . . . . . . . . . . . . . . . . . . . . .                             ",
"                              . . . . . . . . . . . . . . . . . . . . . . . . . . . . . . . . .                                 ",
"                                  . . . . . . . . . . . . . . . . . . . . . . . . . . . . .                                     ",
"                                      . . . . . . . . . . . . . . . . . . . . . . . . . .                                       ",
"                                      . . . . . . . . . . . . . . . . . . . . . . . . .                                         ",
"                                      . . . . . . . . . . . . . . . . . . . . . . . . .                                         "
};
