/* XPM */
static char * collect_xpm[] = {
"40 40 156 2",
"  	c None",
". 	c #000000",
"+ 	c #030300",
"@ 	c #020200",
"# 	c #010100",
"$ 	c #070700",
"% 	c #080800",
"& 	c #111100",
"* 	c #1E1E00",
"= 	c #2A2A00",
"- 	c #313100",
"; 	c #343400",
"> 	c #363600",
", 	c #333300",
"' 	c #323200",
") 	c #272700",
"! 	c #1C1C00",
"~ 	c #0E0E00",
"{ 	c #060600",
"] 	c #0B0B00",
"^ 	c #151500",
"/ 	c #282800",
"( 	c #464600",
"_ 	c #606000",
": 	c #6E6E00",
"< 	c #757500",
"[ 	c #7A7A00",
"} 	c #747400",
"| 	c #6D6D00",
"1 	c #595900",
"2 	c #3E3E00",
"3 	c #232300",
"4 	c #0D0D00",
"5 	c #090900",
"6 	c #161600",
"7 	c #262600",
"8 	c #494900",
"9 	c #9A9A00",
"0 	c #B0B000",
"a 	c #BABA00",
"b 	c #C0C000",
"c 	c #B7B700",
"d 	c #ADAD00",
"e 	c #949400",
"f 	c #696900",
"g 	c #3B3B00",
"h 	c #181800",
"i 	c #202000",
"j 	c #5F5F00",
"k 	c #828200",
"l 	c #A4A400",
"m 	c #C6C600",
"n 	c #D5D500",
"o 	c #DBDB00",
"p 	c #E0E000",
"q 	c #DFDF00",
"r 	c #D8D800",
"s 	c #D2D200",
"t 	c #BFBF00",
"u 	c #9B9B00",
"v 	c #525200",
"w 	c #171700",
"x 	c #191900",
"y 	c #414100",
"z 	c #717100",
"A 	c #A0A000",
"B 	c #BDBD00",
"C 	c #CDCD00",
"D 	c #EAEA00",
"E 	c #EBEB00",
"F 	c #EEEE00",
"G 	c #E7E700",
"H 	c #DCDC00",
"I 	c #C8C800",
"J 	c #B6B600",
"K 	c #969600",
"L 	c #676700",
"M 	c #0A0A00",
"N 	c #2B2B00",
"O 	c #646400",
"P 	c #A2A200",
"Q 	c #EFEF00",
"R 	c #F1F100",
"S 	c #F6F600",
"T 	c #FAFA00",
"U 	c #F9F900",
"V 	c #ECEC00",
"W 	c #D3D300",
"X 	c #575700",
"Y 	c #8D8D00",
"Z 	c #C2C200",
"` 	c #F0F000",
" .	c #FFFF00",
"..	c #555500",
"+.	c #8A8A00",
"@.	c #B5B500",
"#.	c #F3F300",
"$.	c #C7C700",
"%.	c #D9D900",
"&.	c #E9E900",
"*.	c #858500",
"=.	c #CFCF00",
"-.	c #EDED00",
";.	c #F5F500",
">.	c #AFAF00",
",.	c #434300",
"'.	c #8F8F00",
").	c #F8F800",
"!.	c #B9B900",
"~.	c #939300",
"{.	c #E1E100",
"].	c #FDFD00",
"^.	c #FEFE00",
"/.	c #E4E400",
"(.	c #C4C400",
"_.	c #7D7D00",
":.	c #373700",
"<.	c #383800",
"[.	c #919100",
"}.	c #F7F700",
"|.	c #787800",
"1.	c #353500",
"2.	c #404000",
"3.	c #8C8C00",
"4.	c #D6D600",
"5.	c #727200",
"6.	c #E3E300",
"7.	c #626200",
"8.	c #999900",
"9.	c #C1C100",
"0.	c #A5A500",
"a.	c #777700",
"b.	c #474700",
"c.	c #1F1F00",
"d.	c #1A1A00",
"e.	c #9D9D00",
"f.	c #CACA00",
"g.	c #4A4A00",
"h.	c #101000",
"i.	c #242400",
"j.	c #AEAE00",
"k.	c #DDDD00",
"l.	c #A1A100",
"m.	c #252500",
"n.	c #4F4F00",
"o.	c #737300",
"p.	c #0F0F00",
"q.	c #909000",
"r.	c #656500",
"s.	c #444400",
"t.	c #D4D400",
"u.	c #5B5B00",
"v.	c #2F2F00",
"w.	c #878700",
"x.	c #585800",
"y.	c #3D3D00",
"                        . . . . . . . . . . . . . . .                           ",
"                        . . . . . . . . . . . . . . .                           ",
"                    . . . . . . . . . . . . . . . . . . .                       ",
"                  . . . . . . . . . . . . . . . . . . . . . .                   ",
"              . . . . . . . . . . . . . . . . . . . . . . . . .                 ",
"              . . . . . . . . . . . . . . . . . . . . . . . . . .               ",
"          . . . . . . . . . . . . . . . . . . . . . . . . . . . . .             ",
"        . . . . . . . . . . . + @ @ @ @ @ @ @ + . . . . . . . . . . .           ",
"        . . . . . . . # $ % & * = - ; > > , ' ) ! ~ $ # . . . . . . . .         ",
"      . . . . . . . . { ] ^ / ( _ : < [ [ } | 1 2 3 4 $ . . . . . . . . .       ",
"    . . . . . . . . . 5 6 7 8 } 9 0 a b b c d e f g h 4 { . . . . . . . .       ",
"    . . . . . . # { 5 i 2 j k l m n o p q r s t u < v ; w { . . . . . . . .     ",
"  . . . . . . . $ ~ x y z A B C p D E F F E G H I J K L ; 4 $ # . . . . . .     ",
". . . . . . . . M w N O P r Q R S T T T T U T S R V W K v h 4 $ . . . . . . . . ",
". . . . . . . . 6 ' X Y Z `  . . . . . . . . . . . .V J < g 3 ~ . . . . . . . . ",
". . . . . . . + 7 ..+.@.n #. . . . . . . . . . . . .R $.u f 2 ! . . . . . . . . ",
". . . . . . . @ , < c %.&.U  . . . . . . . . . . . .S H t e 1 ) + . . . . . . . ",
". . . . . . . @ g *.=.-.;. . . . . . . . . . . . . .T G s >.| ' @ . . . . . . . ",
". . . . . . . # ,.'.r ;.). . . . . . . . . . . . . .T E %.!.< ; @ . . . . . . . ",
". . . . . . . # ( ~.{.].^. . . . . . . . . . . . . .T R /.(._.:.@ . . . . . . . ",
". . . . . . . # ( K {.]. . . . . . . . . . . . . . .T R /.m _.<.@ . . . . . . . ",
". . . . . . . # ,.[.H }.T  . . . . . . . . . . . . .T -.p B |.1.@ . . . . . . . ",
". . . . . . . # 2.3.4.#.). . . . . . . . . . . . . .T E %.J 5., @ . . . . . . . ",
". . . . . . . @ <._.b 6.F U  . . . . . . . . . . . .S {.$.A 7.N @ . . . . . . . ",
". . . . . . . @ = _ 8.9.H }. . . . . . . . . . . . .R =.0.a.b.c.+ . . . . . . . ",
". . . . . . . @ d.y | e.f.R  . . . . . . . . . . . .Q B k g.N h.. . . . . . . . ",
". . . . . . . . h.i.y a.j.k.R }.U  . . . . . .U #.` r l.j 7 ^ % . . . . . . . . ",
". . . . . . . . % 6 m.n.k j.f.H F ).T  .^.U S V r (.P o.2 6 ] $ . . . . . . . . ",
"    . . . . . . { $ p.= n.a.e.9.6.#.}.].].S ` k.c q.r.s.i 5 { # . . . . . .     ",
"    . . . . . . . . . p.m.y | 8.b 4.H {.{.o t.a '.u.v.d.M . . . . . . . . .     ",
"      . . . . . . . . $ 6 i.y _ _.3.[.K ~.'.w.|.x.> x h.{ . . . . . . . .       ",
"      . . . . . . . . { % h.d.= <.2.,.( ( ,.y.; 7 6 M $ # . . . . . . .         ",
"        . . . . . . . . . . @ @ @ # # # # # @ @ + . . . . . . . . . . .         ",
"          . . . . . . . . . . . . . . . . . . . . . . . . . . . . .             ",
"            . . . . . . . . . . . . . . . . . . . . . . . . . . . .             ",
"              . . . . . . . . . . . . . . . . . . . . . . . . . .               ",
"                . . . . . . . . . . . . . . . . . . . . . . .                   ",
"                    . . . . . . . . . . . . . . . . . . . .                     ",
"                        . . . . . . . . . . . . . . . .                         ",
"                        . . . . . . . . . . . . . . .                           "};
