/* XPM */
static char *_da2df5e1700497d85b9fc024efd7b1cE4NlQLcFuq1fvsmO[] = {
/* columns rows colors chars-per-pixel */
"14 14 14 1 ",
"  c None",
". c black",
"X c #000059",
"o c #000076",
"O c #000082",
"+ c #000088",
"@ c #0000A4",
"# c #0000F0",
"$ c #0000F2",
"% c #0000F4",
"& c #0000FB",
"* c #0000FC",
"= c #0000FD",
"- c blue",
/* pixels */
"    .....     ",
"  .........   ",
" ...........  ",
" ...o#&#X...  ",
"...O-----X... ",
"...------#... ",
"...-------... ",
"...------%... ",
"...@-----o... ",
" ...@---+...  ",
" ...........  ",
"  .........   ",
"    .....     ",
"              "
};
