/* XPM */
static char *d920878b32784d48df9b1dc16005142cJCwhwgYLWu5widvZ[] = {
/* columns rows colors chars-per-pixel */
"64 64 44 1 ",
"  c black",
". c black",
"X c None",
"o c black",
"O c black",
"+ c #020000",
"@ c #040000",
"# c #050000",
"$ c #060000",
"% c #030000",
"& c #010000",
"* c #1A0000",
"= c #320000",
"- c #4B0000",
"; c #520000",
": c #420000",
"> c #290000",
", c #110000",
"< c #610000",
"1 c #900000",
"2 c #9D0000",
"3 c #7F0000",
"4 c #500000",
"5 c #210000",
"6 c #D50000",
"7 c #E90000",
"8 c #BC0000",
"9 c #760000",
"0 c #310000",
"q c red",
"w c #CD0000",
"e c #810000",
"r c #360000",
"t c #A50000",
"y c #680000",
"u c #2B0000",
"i c #1B0000",
"p c #0B0000",
"a c black",
"s c black",
"d c black",
"f c black",
"g c black",
"h c black",
/* pixels */
"                                                                ",
"                                                                ",
" ...........................................................XoO ",
" ...........................................................XoO ",
" ...........................................................XoO ",
" ...........................................................XoO ",
" ...........................................................XoO ",
" ...........................................................XoO ",
" ...........................................................XoO ",
" ...........................................................XoO ",
" .........+@#$$$$$$$$$$$$$$$$$$$$$$$$$$$$$$$$$$$$$#%&.......XoO ",
" ........+*=-;;;;;;;;;;;;;;;;;;;;;;;;;;;;;;;;;;;;;:>,.......XoO ",
" ........@=<12222222222222222222222222222222222222345.......XoO ",
" ........#-167777777777777777777777777777777777777890.......XoO ",
" ........$;27qqqqqqqqqqqqqqqqqqqqqqqqqqqqqqqqqqqqqwer.......XoO ",
" ........$;27qqqqqqqqqqqqqqqqqqqqqqqqqqqqqqqqqqqqqwer.......XoO ",
" ........$;27qqqqqqqqqqqqqqqqqqqqqqqqqqqqqqqqqqqqqwer.......XoO ",
" ........$;27qqqqqqqqqqqqqqqqqqqqqqqqqqqqqqqqqqqqqwer.......XoO ",
" ........$;27qqqqqqqqqqqqqqqqqqqqqqqqqqqqqqqqqqqqqwer.......XoO ",
" ........$;27qqqqqqqqqqqqqqqqqqqqqqqqqqqqqqqqqqqqqwer.......XoO ",
" ........$;27qqqqqqqqqqqqqqqqqqqqqqqqqqqqqqqqqqqqqwer.......XoO ",
" ........$;27qqqqqqqqqqqqqqqqqqqqqqqqqqqqqqqqqqqqqwer.......XoO ",
" ........$;27qqqqqqqqqqqqqqqqqqqqqqqqqqqqqqqqqqqqqwer.......XoO ",
" ........$;27qqqqqqqqqqqqqqqqqqqqqqqqqqqqqqqqqqqqqwer.......XoO ",
" ........$;27qqqqqqqqqqqqqqqqqqqqqqqqqqqqqqqqqqqqqwer.......XoO ",
" ........$;27qqqqqqqqqqqqqqqqqqqqqqqqqqqqqqqqqqqqqwer.......XoO ",
" ........$;27qqqqqqqqqqqqqqqqqqqqqqqqqqqqqqqqqqqqqwer.......XoO ",
" ........$;27qqqqqqqqqqqqqqqqqqqqqqqqqqqqqqqqqqqqqwer.......XoO ",
" ........$;27qqqqqqqqqqqqqqqqqqqqqqqqqqqqqqqqqqqqqwer.......XoO ",
" ........$;27qqqqqqqqqqqqqqqqqqqqqqqqqqqqqqqqqqqqqwer.......XoO ",
" ........$;27qqqqqqqqqqqqqqqqqqqqqqqqqqqqqqqqqqqqqwer.......XoO ",
" ........$;27qqqqqqqqqqqqqqqqqqqqqqqqqqqqqqqqqqqqqwer.......XoO ",
" ........$;27qqqqqqqqqqqqqqqqqqqqqqqqqqqqqqqqqqqqqwer.......XoO ",
" ........$;27qqqqqqqqqqqqqqqqqqqqqqqqqqqqqqqqqqqqqwer.......XoO ",
" ........$;27qqqqqqqqqqqqqqqqqqqqqqqqqqqqqqqqqqqqqwer.......XoO ",
" ........$;27qqqqqqqqqqqqqqqqqqqqqqqqqqqqqqqqqqqqqwer.......XoO ",
" ........$;27qqqqqqqqqqqqqqqqqqqqqqqqqqqqqqqqqqqqqwer.......XoO ",
" ........$;27qqqqqqqqqqqqqqqqqqqqqqqqqqqqqqqqqqqqqwer.......XoO ",
" ........$;27qqqqqqqqqqqqqqqqqqqqqqqqqqqqqqqqqqqqqwer.......XoO ",
" ........$;27qqqqqqqqqqqqqqqqqqqqqqqqqqqqqqqqqqqqqwer.......XoO ",
" ........$;27qqqqqqqqqqqqqqqqqqqqqqqqqqqqqqqqqqqqqwer.......XoO ",
" ........$;27qqqqqqqqqqqqqqqqqqqqqqqqqqqqqqqqqqqqqwer.......XoO ",
" ........$;27qqqqqqqqqqqqqqqqqqqqqqqqqqqqqqqqqqqqqwer.......XoO ",
" ........$;27qqqqqqqqqqqqqqqqqqqqqqqqqqqqqqqqqqqqqwer.......XoO ",
" ........$;27qqqqqqqqqqqqqqqqqqqqqqqqqqqqqqqqqqqqqwer.......XoO ",
" ........$;27qqqqqqqqqqqqqqqqqqqqqqqqqqqqqqqqqqqqqwer.......XoO ",
" ........$;27qqqqqqqqqqqqqqqqqqqqqqqqqqqqqqqqqqqqqwer.......XoO ",
" ........$;27qqqqqqqqqqqqqqqqqqqqqqqqqqqqqqqqqqqqqwer.......XoO ",
" ........$;27qqqqqqqqqqqqqqqqqqqqqqqqqqqqqqqqqqqqqwer.......XoO ",
" ........$;27qqqqqqqqqqqqqqqqqqqqqqqqqqqqqqqqqqqqqwer.......XoO ",
" ........$;27qqqqqqqqqqqqqqqqqqqqqqqqqqqqqqqqqqqqqwer.......XoO ",
" ........#:38wwwwwwwwwwwwwwwwwwwwwwwwwwwwwwwwwwwwwtyu.......XoO ",
" ........%>49eeeeeeeeeeeeeeeeeeeeeeeeeeeeeeeeeeeeey:i.......XoO ",
" ........&,50rrrrrrrrrrrrrrrrrrrrrrrrrrrrrrrrrrrrruip.......XoO ",
" ...........................................................XoO ",
" ...........................................................XoO ",
" ...........................................................XoO ",
" ...........................................................XoO ",
" ...........................................................XoO ",
" ...........................................................XoO ",
" ...........................................................XoO ",
" XXXXXXXXXXXXXXXXXXXXXXXXXXXXXXXXXXXXXXXXXXXXXXXXXXXXXXXXXXXasd ",
" ooooooooooooooooooooooooooooooooooooooooooooooooooooooooooosfg ",
" OOOOOOOOOOOOOOOOOOOOOOOOOOOOOOOOOOOOOOOOOOOOOOOOOOOOOOOOOOOdgh "
};
